<svg width="27" height="26" viewBox="0 0 27 26" fill="none" xmlns="http://www.w3.org/2000/svg">
<path d="M20.7435 13.3484L12.5109 21.5936C11.8037 22.2935 11.0445 22.748 10.2312 22.956C9.4273 23.164 8.63378 23.1536 7.8517 22.9227C7.06583 22.6924 6.35357 22.2612 5.78522 21.6716C5.19941 21.1043 4.76868 20.3965 4.5341 19.6155C4.31057 18.8391 4.30266 18.0165 4.51122 17.236C4.72026 16.4248 5.17474 15.6656 5.87466 14.9573L17.1587 3.68477C17.5397 3.28836 18.0106 2.98944 18.5315 2.81325C19.0463 2.64165 19.5569 2.60525 20.0634 2.70197C20.5699 2.79141 21.0233 3.03269 21.4258 3.42789C21.8283 3.83765 22.0737 4.29525 22.1642 4.80173C22.2599 5.30093 22.2193 5.80741 22.0404 6.32117C21.8643 6.84239 21.5654 7.31359 21.1689 7.69501L10.1085 18.7668C9.86306 19.0196 9.60618 19.1308 9.3389 19.1017C9.09011 19.0744 8.85764 18.9645 8.6785 18.7897C8.49978 18.618 8.389 18.3876 8.3665 18.1408C8.3353 17.8724 8.4445 17.6083 8.68994 17.3483L16.4099 9.65021C16.5942 9.47031 16.7022 9.22639 16.7115 8.96901C16.7191 8.84432 16.699 8.71949 16.6526 8.60351C16.6062 8.48752 16.5346 8.38326 16.4431 8.29821C16.3553 8.21149 16.2504 8.14389 16.1351 8.09968C16.0199 8.05547 15.8967 8.0356 15.7734 8.04133C15.6467 8.04183 15.5215 8.06894 15.406 8.1209C15.2904 8.17285 15.187 8.24849 15.1026 8.34293L7.36082 16.0961C6.95834 16.4913 6.69418 16.9416 6.5673 17.4481C6.44042 17.9473 6.4373 18.4424 6.5569 18.9353C6.67546 19.4189 6.91362 19.836 7.27138 20.1854C7.6282 20.5549 8.08087 20.8178 8.57866 20.9446C9.05913 21.0718 9.56529 21.0646 10.0419 20.9238C10.5488 20.7727 11.0071 20.4912 11.3711 20.1074L22.4991 8.99189C23.2135 8.26909 23.6867 7.49845 23.9176 6.67893C24.1558 5.85213 24.1672 5.03989 23.9509 4.24325C23.7346 3.44661 23.3103 2.73109 22.6769 2.09877C22.0959 1.49773 21.3632 1.06506 20.5563 0.84661C19.7554 0.623154 18.908 0.627116 18.1092 0.85805C17.2751 1.08165 16.4972 1.55485 15.7744 2.27661L4.43322 13.6386C3.72602 14.3458 3.20082 15.1133 2.85866 15.9401C2.52847 16.7404 2.36497 17.5996 2.37818 18.4652C2.39313 19.3143 2.57145 20.1526 2.90338 20.9342C3.2434 21.7456 3.74518 22.4791 4.3781 23.0901C4.98878 23.7153 5.71777 24.2127 6.52258 24.5534C7.3265 24.8966 8.1533 25.0713 9.00298 25.0786C9.86861 25.0918 10.7278 24.9284 11.5281 24.5981C12.3539 24.2632 13.1214 23.7422 13.8286 23.034L22.1413 14.7337C22.2331 14.642 22.3045 14.5318 22.3505 14.4104C22.3966 14.289 22.4164 14.1592 22.4086 14.0296C22.4137 13.8983 22.3905 13.7674 22.3404 13.6459C22.2903 13.5244 22.2146 13.4151 22.1184 13.3256C22.0351 13.2285 21.9298 13.1526 21.8114 13.1042C21.693 13.0557 21.5647 13.0361 21.4372 13.0469C21.1689 13.0614 20.938 13.1613 20.7446 13.3484H20.7435Z" fill="#9598FF"/>
</svg>
