<svg width="69" height="71" viewBox="0 0 69 71" fill="none" xmlns="http://www.w3.org/2000/svg">
<path fill-rule="evenodd" clip-rule="evenodd" d="M30.8248 0.187551C28.5999 0.75873 26.8894 2.38382 26.2024 4.57795C26.0299 5.12888 26.0288 5.14913 26.0288 9.11861V13.1051H63.3916L64.1032 12.9101C66.2757 12.3123 67.954 10.8044 68.6367 8.83728C68.7524 8.50267 68.881 7.9965 68.9228 7.71304C68.9646 7.42425 68.9979 5.61801 68.9989 3.5997L69 0L50.2629 0.00426253L31.5257 0.00745942L30.8248 0.187551ZM53.7171 25.9332L53.7353 32.7437L57.8583 32.765C60.5204 32.7788 62.2009 32.7575 62.6017 32.7053C65.4311 32.3398 67.7879 30.3023 68.4909 27.6126C68.6474 27.0116 68.656 26.8187 68.6838 23.0539L68.7139 19.1228H53.6978L53.7171 25.9332ZM19.5298 19.7472C14.7295 21.1496 10.7137 23.543 7.31098 27.0329C5.39793 28.9937 3.94359 31.028 2.6993 33.4821C1.40786 36.0279 0.642645 38.4405 0.207521 41.3284C0.0146083 42.6167 -0.0657718 45.7827 0.0617646 47.0785C0.520467 51.7066 2.127 55.9659 4.80955 59.6679C6.60363 62.1423 9.0429 64.4984 11.5818 66.2077C21.0485 72.5802 33.6467 72.5993 43.1326 66.2535C45.6823 64.5485 48.3112 62.0198 49.9928 59.6562C51.296 57.8244 52.4685 55.6419 53.2069 53.6759L53.6356 52.5324L53.612 42.7489L53.5874 32.9653L52.5103 32.9163C51.9176 32.8897 48.7925 32.8662 45.5644 32.8641L39.6966 32.8598L39.6774 26.1762L39.6591 19.4915L30.021 19.4947L20.384 19.4979L19.5298 19.7472ZM22.7611 33.4363C18.6338 35.0039 15.7487 38.2572 14.8506 42.3578C13.7617 47.3268 16.1131 52.5623 20.6176 55.1965C23.4159 56.8333 26.5765 57.3853 29.8774 56.8131C33.9918 56.1002 37.6132 53.2549 39.2679 49.4357L39.6227 48.6173L39.642 40.884L39.6623 33.1497L31.5825 33.1518L23.5038 33.155L22.7611 33.4363Z" fill="white"/>
</svg>
