<svg width="27" height="26" viewBox="0 0 27 26" fill="none" xmlns="http://www.w3.org/2000/svg">
<path d="M5.89721 24.717C6.21921 24.717 6.64221 24.638 7.16521 24.481C7.74052 24.3109 8.30379 24.1024 8.85121 23.857C9.46538 23.586 10.0676 23.2887 10.6562 22.966C11.2179 22.668 11.7597 22.334 12.2782 21.966C12.3852 21.896 12.4822 21.846 12.5682 21.816C12.6513 21.7878 12.7384 21.7733 12.8262 21.773C12.8902 21.781 12.9552 21.784 13.0192 21.784C13.0912 21.791 13.1522 21.794 13.2022 21.794C14.7562 21.794 16.2062 21.634 17.5522 21.311C18.9062 20.989 20.1272 20.527 21.2162 19.926C22.3112 19.324 23.2492 18.612 24.0302 17.788C24.7937 16.9906 25.4021 16.0581 25.8242 15.038C26.2498 14.0059 26.4653 12.8993 26.4582 11.783C26.4647 10.428 26.1363 9.09242 25.5022 7.89498C24.8642 6.67698 23.9762 5.61398 22.8382 4.70498C21.6992 3.78698 20.3742 3.07098 18.8632 2.55498C17.3592 2.03998 15.7442 1.78198 14.0182 1.78198C12.2922 1.78198 10.6742 2.03998 9.16321 2.55598C7.65921 3.07098 6.33821 3.78698 5.19921 4.70398C4.06721 5.61398 3.17921 6.67698 2.53521 7.89398C1.90075 9.09202 1.57234 10.4283 1.57921 11.784C1.57921 12.936 1.80121 14.036 2.24521 15.081C2.70638 16.1526 3.35791 17.1317 4.16821 17.971C5.00621 18.844 6.01221 19.596 7.18621 20.227C7.2688 20.272 7.33341 20.344 7.36921 20.431C7.39821 20.509 7.38721 20.595 7.33721 20.689C7.10995 21.0505 6.86637 21.4016 6.60721 21.741C6.35479 22.0743 6.09302 22.4004 5.82221 22.719C5.57221 23.019 5.37421 23.259 5.23221 23.439C4.99521 23.746 4.93821 24.037 5.05921 24.309C5.18121 24.581 5.46021 24.717 5.89721 24.717Z" fill="#9598FF"/>
</svg>
