<svg width="26" height="26" viewBox="0 0 26 26" fill="none" xmlns="http://www.w3.org/2000/svg">
<mask id="mask0_485_568" style="mask-type:luminance" maskUnits="userSpaceOnUse" x="0" y="0" width="26" height="26">
<path d="M21.4597 0.478516H4.25044C2.078 0.478516 0.316895 2.23962 0.316895 4.41206V21.6213C0.316895 23.7938 2.078 25.5549 4.25044 25.5549H21.4597C23.6322 25.5549 25.3933 23.7938 25.3933 21.6213V4.41206C25.3933 2.23962 23.6322 0.478516 21.4597 0.478516Z" fill="white"/>
</mask>
<g mask="url(#mask0_485_568)">
<path d="M10.0542 7.73762H15.6468C16.2398 7.73762 16.5865 7.36353 16.5865 6.74315V5.78523C16.5865 5.15573 16.2398 4.7908 15.6468 4.7908H14.999C14.9169 3.67777 13.9955 2.78369 12.8551 2.78369C11.7146 2.78369 10.7932 3.67777 10.7111 4.7908H10.0542C9.47031 4.7908 9.12363 5.15573 9.12363 5.78523V6.74315C9.12363 7.36353 9.47031 7.73762 10.0542 7.73762ZM12.8551 5.694C12.3989 5.694 12.0248 5.31082 12.0248 4.87291C12.0248 4.41675 12.3989 4.05182 12.8551 4.05182C13.3112 4.05182 13.6762 4.41675 13.6762 4.87291C13.6762 5.31082 13.3112 5.694 12.8551 5.694ZM8.0197 25.4184H17.6904C19.7157 25.4184 20.9018 24.2233 20.9018 22.1705V8.41273C20.9018 6.37824 19.734 5.15573 17.7451 5.15573H17.5535C17.6356 5.33819 17.6721 5.55715 17.6721 5.78523V6.67016C17.6721 6.94386 17.6356 7.19022 17.5444 7.40919H17.6812C18.3108 7.40919 18.6483 7.81061 18.6483 8.43099V22.1431C18.6483 22.7909 18.2742 23.1741 17.5991 23.1741H8.10183C7.42671 23.1741 7.05269 22.7909 7.05269 22.1431V8.43099C7.05269 7.81061 7.39938 7.40919 8.02884 7.40919H8.16568C8.07449 7.19022 8.03797 6.94386 8.03797 6.67016V5.78523C8.03797 5.55715 8.07449 5.33819 8.14748 5.15573H7.96498C5.97614 5.15573 4.80836 6.37824 4.80836 8.41273V22.1705C4.80836 24.2233 5.99438 25.4184 8.0197 25.4184ZM9.32433 13.1386C9.8444 13.1386 10.2549 12.728 10.2549 12.208C10.2549 11.6971 9.8444 11.2866 9.32433 11.2866C8.8226 11.2866 8.40292 11.7062 8.40292 12.208C8.40292 12.7189 8.8226 13.1386 9.32433 13.1386ZM11.9427 12.9835H16.5409C16.9696 12.9835 17.3163 12.6368 17.3163 12.208C17.3163 11.7883 16.9696 11.4325 16.5409 11.4325H11.9427C11.5139 11.4325 11.1672 11.7883 11.1672 12.208C11.1672 12.6368 11.5139 12.9835 11.9427 12.9835ZM9.32433 16.3499C9.8444 16.3499 10.2549 15.9393 10.2549 15.4193C10.2549 14.9085 9.83527 14.507 9.32433 14.507C8.81347 14.507 8.40292 14.9175 8.40292 15.4193C8.40292 15.9393 8.81347 16.3499 9.32433 16.3499ZM11.9427 16.204H16.5409C16.9787 16.204 17.3163 15.8573 17.3163 15.4193C17.3163 14.9997 16.9696 14.653 16.5409 14.653H11.9427C11.5139 14.653 11.1672 14.9997 11.1672 15.4193C11.1672 15.8573 11.5048 16.204 11.9427 16.204ZM9.32433 19.7347C9.8444 19.7347 10.2549 19.3332 10.2549 18.8132C10.2549 18.2932 9.8444 17.8918 9.32433 17.8918C8.8226 17.8918 8.40292 18.3023 8.40292 18.8132C8.40292 19.3241 8.8226 19.7347 9.32433 19.7347ZM11.9427 19.5887H16.5409C16.9696 19.5887 17.3163 19.242 17.3163 18.8132C17.3163 18.3844 16.9696 18.0469 16.5409 18.0469H11.9427C11.5139 18.0469 11.1672 18.3844 11.1672 18.8132C11.1672 19.242 11.5139 19.5887 11.9427 19.5887ZM5.18241 41.3271H20.5185C22.6078 41.3271 23.739 40.1958 23.739 38.1249V32.9064C23.739 31.6109 23.5748 31.0635 22.9818 30.3154L20.2357 26.7482C19.0679 25.2429 18.4932 24.7958 16.7872 24.7958H8.91379C7.21688 24.7958 6.64215 25.2429 5.46524 26.7482L2.71914 30.3154C2.13526 31.0726 1.96191 31.6109 1.96191 32.9064V38.1249C1.96191 40.1958 3.10232 41.3271 5.18241 41.3271ZM12.8551 35.2237C11.4501 35.2237 10.5925 34.2475 10.5925 33.0706V32.9429C10.5925 32.505 10.3371 32.0853 9.78967 32.0853H4.78099C4.39782 32.0853 4.34308 31.7751 4.52554 31.5288L7.76427 27.3138C8.10183 26.876 8.50324 26.6753 9.04157 26.6753H16.6594C17.1977 26.6753 17.5991 26.876 17.9367 27.3138L21.1663 31.5288C21.3579 31.7751 21.294 32.0853 20.92 32.0853H15.9113C15.3639 32.0853 15.1085 32.505 15.1085 32.9429V33.0706C15.1085 34.2475 14.2509 35.2237 12.8551 35.2237Z" fill="#9598FF"/>
</g>
</svg>
