<svg width="26" height="26" viewBox="0 0 26 26" fill="none" xmlns="http://www.w3.org/2000/svg">
<path d="M6.15193 21.8515H8.41538C8.62771 21.8515 8.76493 21.8948 8.91226 22.0537L10.5214 23.6498C11.908 25.0365 13.1979 25.0249 14.573 23.6498L16.1807 22.0523C16.2425 21.9827 16.3194 21.9283 16.4056 21.8933C16.4917 21.8582 16.5848 21.8434 16.6776 21.85H18.9425C20.8882 21.85 21.8097 20.9314 21.8097 18.9742V16.7093C21.8072 16.6162 21.8247 16.5236 21.8611 16.4379C21.8975 16.3522 21.9519 16.2753 22.0206 16.2124L23.6182 14.6047C25.0048 13.2296 24.9933 11.9383 23.6182 10.5632L22.0206 8.94538C21.9519 8.88437 21.8974 8.80904 21.861 8.72468C21.8245 8.64033 21.807 8.54901 21.8097 8.45716V6.19371C21.8097 4.2466 20.8997 3.31638 18.9425 3.31638H16.6776C16.5851 3.32064 16.4927 3.30477 16.4069 3.26986C16.3211 3.23494 16.244 3.18182 16.1807 3.11416L14.5745 1.51949C13.1994 0.132826 11.908 0.132826 10.5228 1.51949L8.91226 3.1156C8.85014 3.18463 8.77311 3.23859 8.68701 3.27338C8.60091 3.30817 8.50801 3.32287 8.41538 3.31638H6.15338C4.20626 3.31638 3.28615 4.22638 3.28615 6.19371V8.45716C3.28615 8.65938 3.23271 8.7966 3.08393 8.94394L1.48782 10.5632C0.101153 11.9383 0.112709 13.2296 1.48782 14.6047L3.08538 16.2124C3.23271 16.3612 3.28615 16.5085 3.28615 16.7093V18.9742C3.28615 20.9198 4.20626 21.8515 6.15338 21.8515H6.15193ZM11.3779 17.8099C10.9648 17.8099 10.6485 17.6308 10.3408 17.2495L7.7596 14.1078C7.57278 13.8972 7.46771 13.6266 7.46349 13.3452C7.46349 12.7963 7.89682 12.3514 8.44715 12.3514C8.77504 12.3514 9.03938 12.4785 9.30371 12.828L11.336 15.3992L15.7055 8.41527C15.9366 8.04549 16.2342 7.85483 16.5722 7.85483C17.1008 7.85483 17.5876 8.23616 17.5876 8.78649C17.5876 9.02916 17.472 9.3036 17.3132 9.5376L12.3616 17.2394C12.1189 17.6092 11.7795 17.8099 11.3779 17.8099Z" fill="#9598FF"/>
</svg>
