<svg width="25" height="25" viewBox="0 0 25 25" fill="none" xmlns="http://www.w3.org/2000/svg">
<path d="M22.6367 12.2217C22.6373 12.4765 22.572 12.7271 22.447 12.9492C22.3221 13.1713 22.1418 13.3572 21.9238 13.489L8.40872 21.7568C8.18086 21.8963 7.91988 21.9725 7.65274 21.9774C7.3856 21.9823 7.12199 21.9159 6.88912 21.7849C6.65847 21.6559 6.46633 21.4679 6.33246 21.24C6.19859 21.0122 6.12783 20.7528 6.12744 20.4885V3.95493C6.12783 3.69068 6.19859 3.43129 6.33246 3.20345C6.46633 2.97562 6.65847 2.78755 6.88912 2.65858C7.12199 2.52759 7.3856 2.46113 7.65274 2.46608C7.91988 2.47102 8.18086 2.5472 8.40872 2.68672L21.9238 10.9545C22.1418 11.0862 22.3221 11.2722 22.447 11.4943C22.572 11.7163 22.6373 11.9669 22.6367 12.2217Z" fill="white"/>
</svg>
